<?xml version="1.0" encoding="utf-8"?>
<!-- Generator: Adobe Illustrator 22.1.0, SVG Export Plug-In . SVG Version: 6.00 Build 0)  -->
<svg version="1.1" id="Capa_1" xmlns="http://www.w3.org/2000/svg" xmlns:xlink="http://www.w3.org/1999/xlink" x="0px" y="0px"
	 viewBox="0 0 512 512.6" style="enable-background:new 0 0 512 512.6;" xml:space="preserve">
<style type="text/css">
	.st0{fill:#FFDC00;}
	.st1{fill:#FFC000;}
	.st2{fill:#DCE1EA;}
	.st3{fill:#9196A9;}
	.st4{fill:#2A9914;}
	.st5{fill:#005C83;}
	.st6{fill:#0074A3;}
	.st7{fill:#00263F;}
</style>
<circle class="st0" cx="256" cy="256" r="226.2"/>
<path class="st1" d="M424.6,162.6L189.1,380.1l85.3,101.4c116.3-9.4,207.8-106.7,207.8-225.4c0-9.6-0.6-19.1-1.8-28.4L424.6,162.6z"
	/>
<polygon class="st2" points="192.1,380.8 192.1,512.6 274.4,512.6 274.4,465.2 320.1,465.2 320.1,413.2 "/>
<g>
	<path class="st3" d="M285.5,431c-5.7,0-6.6,3.2-6.6,6.1c0,2.3,0.3,4.6,0.7,6.8c0.3,2.4,0.7,4.7,0.7,6.9c0,7.5-5,10.7-12,10.7h-1.6
		v-4.5h1.4c4.8-0.1,6.6-2.6,6.6-7c0-1.9-0.3-3.8-0.6-5.8c-0.3-2-0.7-4-0.7-6.2c-0.1-5.2,2.3-7.9,6-8.8v-0.2c-3.7-1-6-3.7-6-8.9
		c0-2.2,0.3-4.3,0.7-6.3c0.2-2,0.6-3.9,0.6-5.9c0-4.6-2-7-6.6-7.1h-1.4v-4.5h1.7c6.7,0,11.9,2.9,11.9,11.2c0,2.2-0.3,4.5-0.7,6.7
		c-0.2,2.3-0.6,4.5-0.6,6.6c0,2.6,0.8,6.1,6.6,6.1V431z"/>
	<path class="st3" d="M259.6,438.3c0,3-2,5.2-4.8,5.2c-2.9,0-4.8-2.1-4.8-5.2c0-2.9,1.9-5.1,4.9-5.1
		C257.7,433.3,259.6,435.5,259.6,438.3z M263.2,395.2c-1.8,4.9-4,13.6-4.9,19.7l-7.9,0.8c2-7,5.6-16.1,7.9-19.9L263.2,395.2z"/>
	<path class="st3" d="M226.6,426.8c5.7,0,6.6-3.5,6.6-6.1c0-2.1-0.3-4.3-0.7-6.6c-0.3-2.2-0.7-4.5-0.7-6.7c0-8.3,5.2-11.2,11.9-11.2
		h1.7v4.5h-1.4c-4.6,0.1-6.6,2.5-6.6,7.1c0,2,0.3,3.9,0.6,5.9c0.3,2,0.7,4.1,0.7,6.3c0.1,5.2-2.3,7.9-6,8.9v0.2c3.7,1,6,3.6,6,8.8
		c0,2.2-0.3,4.2-0.7,6.2c-0.2,2-0.6,3.9-0.6,5.8c0,4.4,1.7,7,6.6,7h1.4v4.5h-1.6c-7,0-12-3.2-12-10.7c0-2.2,0.3-4.5,0.7-6.9
		c0.3-2.2,0.7-4.5,0.7-6.8c0-2.9-0.8-6.1-6.6-6.1V426.8z"/>
</g>
<polygon class="st3" points="274.4,512.6 320.1,465.2 274.4,465.2 "/>
<g>
	<polygon class="st4" points="407.9,162.6 364.3,4.4 84.3,80.5 106.9,162.6 	"/>
	<path class="st2" d="M282,96.8l29-7.9l3.9,14.5l-29,7.9L282,96.8z"/>
	<path class="st3" d="M303.8,10.5L342.4,0l5.3,19.3L309,29.8L303.8,10.5z"/>
	<g>
		<path class="st2" d="M291.5,64.9c-2.2,0.6-4.6,0.3-6.7-0.8c-1-0.6-1.8-1.4-2.5-2.3c-0.7-0.9-1.3-1.9-1.5-3
			c-0.6-2.2-0.3-4.6,0.8-6.7c0.6-1,1.4-1.8,2.3-2.5c2.8-2.2,6.6-2.5,9.7-0.7c1,0.6,1.8,1.4,2.5,2.3c1.5,1.8,2.1,4.1,1.7,6.4
			c-0.2,2.3-1.4,4.5-3.3,5.8C293.7,64,292.6,64.6,291.5,64.9z"/>
		<path class="st2" d="M325.3,55.7c-2.2,0.6-4.6,0.3-6.7-0.8c-1-0.6-1.8-1.4-2.5-2.3c-0.7-0.9-1.3-1.9-1.5-3
			c-0.6-2.2-0.3-4.6,0.8-6.7c0.6-1,1.4-1.8,2.3-2.5c2.8-2.2,6.6-2.5,9.7-0.7c2,1.2,3.4,3.1,4.1,5.3c0.3,1.1,0.4,2.3,0.2,3.4
			c-0.2,2.3-1.4,4.5-3.3,5.8C327.4,54.8,326.4,55.4,325.3,55.7z"/>
		<path class="st2" d="M314.5,75.5c-2.2,0.6-4.6,0.3-6.7-0.8c-2-1.2-3.5-3.1-4.1-5.3c-0.6-2.2-0.3-4.6,0.8-6.7
			c1.5-2.5,4.1-4.1,7-4.3c0.6-0.1,1.2,0,1.7,0.1c0.6,0,1.1,0.2,1.6,0.4c0.6,0.2,1.1,0.4,1.6,0.6c2,1.2,3.4,3.1,4.1,5.3
			c0.6,2.2,0.3,4.6-0.8,6.7c-0.6,1-1.4,1.8-2.3,2.6C316.7,74.7,315.6,75.2,314.5,75.5z"/>
		<path class="st2" d="M348.3,66.3c-2.2,0.6-4.6,0.3-6.7-0.8c-2-1.2-3.5-3.1-4.1-5.3c-0.6-2.2-0.3-4.6,0.8-6.7
			c1.5-2.5,4.1-4.2,7.1-4.4c0.6,0,1.1,0,1.7,0.1c0.6,0,1.2,0.2,1.7,0.3c0.5,0.2,1,0.4,1.5,0.7c2,1.2,3.4,3.1,4.1,5.3
			c0.6,2.2,0.3,4.6-0.8,6.7c-0.6,1-1.4,1.9-2.3,2.6C350.4,65.5,349.4,66,348.3,66.3z"/>
	</g>
	<path class="st3" d="M255.5,23.6l29-7.9l5.3,19.3l-29,7.9L255.5,23.6z"/>
	<path class="st2" d="M224.7,63.1l19.3-5.3l21,77.4l-19.3,5.3L224.7,63.1z"/>
	<path class="st2" d="M330.3,83.7l29-7.9l3.9,14.5l-29,7.9L330.3,83.7z"/>
	<polygon class="st2" points="148.1,162.6 128.2,89.4 108.8,94.6 127.3,162.6 	"/>
	<polygon class="st2" points="189.6,162.6 166.8,78.9 147.5,84.1 168.8,162.6 	"/>
	<polygon class="st2" points="231,162.6 205.4,68.4 186.1,73.6 210.3,162.6 	"/>
	<polygon class="st2" points="297.1,157.5 311.6,153.6 312.9,158.4 298.4,162.3 298.5,162.6 391.8,162.6 389.2,153.2 374.8,157.1 
		373.4,152.3 387.9,148.4 385.3,138.7 370.8,142.7 369.5,137.8 384,133.9 381.4,124.2 366.9,128.2 364.2,118.5 354.6,121.1 
		350.7,106.7 341,109.3 344.9,123.8 340.1,125.1 336.2,110.6 326.5,113.2 330.4,127.7 325.6,129 321.7,114.5 312,117.2 316,131.6 
		306.3,134.3 308.9,143.9 294.4,147.9 	"/>
	<polygon class="st3" points="354.6,162.6 355.4,162.4 350.2,143.1 330.9,148.3 334.8,162.6 	"/>
</g>
<polygon class="st5" points="424.6,162.6 255.7,162.6 87.4,162.6 87.4,194.9 87.4,194.9 189.1,320.5 322.9,320.5 424.6,194.9 
	424.6,194.9 "/>
<rect x="87.4" y="162.6" class="st6" width="337.2" height="32.2"/>
<rect x="255.7" y="162.6" class="st5" width="168.9" height="32.2"/>
<polygon class="st7" points="424.6,194.9 255.7,194.9 255.7,320.5 322.9,320.5 "/>
<polygon class="st6" points="189.1,380.1 322.9,413.9 322.9,320.5 189.1,320.5 "/>
<polygon class="st5" points="322.9,320.5 255.7,320.5 255.7,396.9 322.9,413.9 "/>
</svg>
